#!OML:ASF I:\Actors\actors\Patient Classification 2\Patient 1\Session 1\actor1.ASF
:FULLY-SPECIFIED
:DEGREES
469
root -1.29409 17.8396 6.42539 10.4629 -59.5622 -14.7489
lowerback 7.25599 -8.04569 6.52138
upperback -3.71935 -9.7829 6.81526
thorax -7.88083 -4.99141 5.03769
lowerneck -16.5008 14.0265 17.9687
upperneck 15.8201 17.3958 -12.0758
head 10.4334 8.04496 -4.33264
rclavicle 7.44449e-014 -8.90555e-014
rhumerus -16.3281 -27.3721 11.2357
rradius 135.69
rwrist -34.3777
rhand -6.04768 -33.5537
rfingers 7.12502
rthumb 19.7865 -62.5665
lclavicle 7.44449e-014 -8.90555e-014
lhumerus -11.7222 64.9497 35.2712
lradius 39.0569
lwrist 26.2921
lhand -11.903 -27.0287
lfingers 7.12502
lthumb 14.1504 2.46938
rfemur 11.5117 14.3259 23.3699
rtibia -20.1925
rfoot 21.2643 5.29625
rtoes 26.9043
lfemur 25.0266 13.5689 -12.6902
ltibia -6.10571
lfoot -28.3508 32.2182
ltoes 11.1547
470
root -1.29404 17.8402 6.4279 10.5039 -59.5154 -14.78
lowerback 7.23454 -8.02803 6.51921
upperback -3.72133 -9.7615 6.82112
thorax -7.86973 -4.98108 5.03822
lowerneck -16.5039 14.0083 17.9563
upperneck 15.8251 17.3724 -12.0727
head 10.4305 8.0338 -4.33459
rclavicle 1.8e-013 -6.20208e-014
rhumerus -16.28 -27.1401 11.2348
rradius 135.876
rwrist -34.6198
rhand -5.78418 -33.5993
rfingers 7.12502
rthumb 20.0398 -62.5859
lclavicle 1.8e-013 -6.20208e-014
lhumerus -11.4578 64.9029 35.5643
lradius 38.9997
lwrist 26.2698
lhand -11.8786 -26.993
lfingers 7.12502
lthumb 14.174 2.50343
rfemur 11.4713 14.3258 23.3806
rtibia -20.1382
rfoot 21.2107 5.33417
rtoes 26.9622
lfemur 25.0815 13.5474 -12.6711
ltibia -6.26623
lfoot -28.1896 32.2952
ltoes 10.9958
471
root -1.2945 17.8404 6.42959 10.5272 -59.4825 -14.7823
lowerback 7.19081 -7.99843 6.5016
upperback -3.70982 -9.72975 6.79507
thorax -7.83425 -4.9655 5.00571
lowerneck -16.5319 13.9885 17.9593
upperneck 15.8601 17.331 -12.0279
head 10.4369 8.01822 -4.32631
rclavicle -1.03865e-013 1.43125e-014
rhumerus -16.2654 -26.9566 11.1713
rradius 136.046
rwrist -34.765
rhand -5.28061 -33.4595
rfingers 7.12502
rthumb 20.5238 -62.3947
lclavicle -1.03865e-013 1.43125e-014
lhumerus -11.0183 64.8811 35.9656
lradius 38.9166
lwrist 26.1991
lhand -11.8438 -26.9816
lfingers 7.12502
lthumb 14.2075 2.51253
rfemur 11.4293 14.3074 23.3741
rtibia -20.1031
rfoot 21.1941 5.3087
rtoes 27.1818
lfemur 25.0981 13.5365 -12.6677
ltibia -6.3419
lfoot -28.1613 32.2747
ltoes 11.0659
472
root -1.29446 17.8399 6.4314 10.509 -59.4399 -14.7417
lowerback 7.17519 -8.00063 6.46325
upperback -3.70468 -9.7393 6.76859
thorax -7.81735 -4.96876 4.99534
lowerneck -16.5299 13.9921 17.9271
upperneck 15.8865 17.3229 -11.9265
head 10.4305 8.02276 -4.28756
rclavicle 6.02318e-014 8.11041e-014
rhumerus -16.1704 -26.7738 11.0226
rradius 136.159
rwrist -34.8213
rhand -5.00401 -33.1126
rfingers 7.12502
rthumb 20.7896 -62.0189
lclavicle 6.02318e-014 8.11041e-014
lhumerus -10.7484 64.914 36.1953
lradius 38.8606
lwrist 26.0874
lhand -11.7546 -26.971
lfingers 7.12502
lthumb 14.2934 2.51704
rfemur 11.4062 14.2907 23.3464
rtibia -20.0831
rfoot 21.1459 5.29088
rtoes 27.2605
lfemur 25.0873 13.5123 -12.6848
ltibia -6.35147
lfoot -28.2255 32.2037
ltoes 11.3055
473
root -1.29414 17.839 6.43382 10.5143 -59.3994 -14.7283
lowerback 7.18001 -8.01589 6.45563
upperback -3.71523 -9.75946 6.75873
thorax -7.83151 -4.97819 4.99417
lowerneck -16.4809 13.9916 17.8475
upperneck 15.876 17.3218 -11.8076
head 10.3972 8.03187 -4.23726
rclavicle -4.47266e-015 2.8625e-014
rhumerus -16.0591 -26.5937 10.8631
rradius 136.225
rwrist -34.7063
rhand -4.9907 -32.8954
rfingers 7.12502
rthumb 20.8023 -61.8002
lclavicle -4.47266e-015 2.8625e-014
lhumerus -10.667 64.9139 36.2665
lradius 38.8363
lwrist 26.0323
lhand -11.6205 -26.9524
lfingers 7.12502
lthumb 14.4227 2.52641
rfemur 11.39 14.2709 23.3316
rtibia -20.0736
rfoot 21.1103 5.26735
rtoes 27.2488
lfemur 25.0511 13.494 -12.6914
ltibia -6.31738
lfoot -28.2899 32.1277
ltoes 11.5757
474
root -1.29321 17.8387 6.43689 10.5726 -59.3761 -14.7631
lowerback 7.1529 -8.00912 6.50466
upperback -3.71704 -9.74821 6.74876
thorax -7.82856 -4.97529 4.95246
lowerneck -16.4456 13.9748 17.8016
upperneck 15.863 17.3025 -11.7571
head 10.3734 8.0272 -4.21904
rclavicle 7.42461e-014 -1.59028e-015
rhumerus -16.0379 -26.4137 10.7701
rradius 136.302
rwrist -34.6052
rhand -5.15499 -32.9078
rfingers 7.12502
rthumb 20.6445 -61.8299
lclavicle 7.42461e-014 -1.59028e-015
lhumerus -10.5022 64.8639 36.4223
lradius 38.7984
lwrist 26.038
lhand -11.5751 -27.0789
lfingers 7.12502
lthumb 14.4664 2.39682
rfemur 11.3587 14.2497 23.3358
rtibia -20.0712
rfoot 21.1317 5.2111
rtoes 27.3196
lfemur 24.9956 13.4986 -12.6798
ltibia -6.26416
lfoot -28.3222 32.0782
ltoes 11.6413
475
root -1.29185 17.8395 6.44021 10.6286 -59.3616 -14.7835
lowerback 7.1088 -7.98706 6.54427
upperback -3.69675 -9.72092 6.73308
thorax -7.79145 -4.96442 4.90109
lowerneck -16.4787 13.9674 17.8461
upperneck 15.8627 17.2873 -11.8117
head 10.387 8.01596 -4.24592
rclavicle -7.07673e-014 -3.18055e-014
rhumerus -16.0573 -26.2682 10.7213
rradius 136.393
rwrist -34.7527
rhand -5.29859 -33.0761
rfingers 7.12502
rthumb 20.5065 -62.0131
lclavicle -7.07673e-014 -3.18055e-014
lhumerus -10.2623 64.8053 36.6594
lradius 38.777
lwrist 26.0218
lhand -11.6298 -27.1865
lfingers 7.12502
lthumb 14.4138 2.29298
rfemur 11.3158 14.2476 23.3284
rtibia -20.064
rfoot 21.1322 5.23039
rtoes 27.1873
lfemur 24.9457 13.5126 -12.6807
ltibia -6.24694
lfoot -28.3238 32.0581
ltoes 11.4551
476
root -1.29054 17.8403 6.44283 10.7019 -59.3496 -14.8222
lowerback 7.09189 -7.97182 6.53917
upperback -3.67684 -9.70387 6.75114
thorax -7.75638 -4.95606 4.91443
lowerneck -16.5343 13.9867 17.8874
upperneck 15.8728 17.3113 -11.8803
head 10.4157 8.01976 -4.2679
rclavicle -5.82439e-014 -2.06736e-014
rhumerus -16.0016 -26.1325 10.6478
rradius 136.458
rwrist -34.8353
rhand -5.44577 -33.3991
rfingers 7.12502
rthumb 20.3651 -62.3513
lclavicle -5.82439e-014 -2.06736e-014
lhumerus -10.1766 64.7742 36.7914
lradius 38.8007
lwrist 26.0391
lhand -11.6842 -27.1047
lfingers 7.12502
lthumb 14.3614 2.37849
rfemur 11.2665 14.2681 23.331
rtibia -20.045
rfoot 21.1015 5.24067
rtoes 27.2033
lfemur 24.9154 13.5294 -12.67
ltibia -6.2781
lfoot -28.2747 32.0489
ltoes 11.3159
477
root -1.28901 17.8403 6.44485 10.7281 -59.3405 -14.8446
lowerback 7.10941 -7.96831 6.49405
upperback -3.65408 -9.70275 6.79068
thorax -7.72689 -4.95321 4.9788
lowerneck -16.5825 14.0017 17.8212
upperneck 15.9119 17.3427 -11.8701
head 10.4359 8.02874 -4.24588
rclavicle 5.26779e-014 -3.65764e-014
rhumerus -15.9191 -25.9769 10.5838
rradius 136.48
rwrist -34.7398
rhand -5.66566 -33.6909
rfingers 7.12502
rthumb 20.1537 -62.6655
lclavicle 5.26779e-014 -3.65764e-014
lhumerus -10.1521 64.8883 36.8806
lradius 38.7888
lwrist 26.0337
lhand -11.7199 -27.0807
lfingers 7.12502
lthumb 14.3269 2.40498
rfemur 11.2492 14.2722 23.3332
rtibia -20.0219
rfoot 21.0904 5.21584
rtoes 27.4402
lfemur 24.9389 13.5425 -12.6582
ltibia -6.3361
lfoot -28.2404 32.0436
ltoes 11.3579
478
root -1.28751 17.8406 6.44734 10.7309 -59.3333 -14.8758
lowerback 7.14859 -7.96555 6.48059
upperback -3.62374 -9.6978 6.81063
thorax -7.71072 -4.94973 5.00864
lowerneck -16.6196 13.9953 17.7572
upperneck 15.9501 17.3435 -11.8534
head 10.4484 8.02513 -4.22889
rclavicle 1.32689e-013 4.77083e-014
rhumerus -15.9147 -25.8524 10.5706
rradius 136.484
rwrist -34.7081
rhand -5.61259 -33.7416
rfingers 7.12502
rthumb 20.2047 -62.7108
lclavicle 1.32689e-013 4.77083e-014
lhumerus -10.0641 65.0444 36.9879
lradius 38.7383
lwrist 25.9856
lhand -11.7428 -27.1674
lfingers 7.12502
lthumb 14.3048 2.31981
rfemur 11.2645 14.3004 23.3517
rtibia -19.9938
rfoot 21.0431 5.26661
rtoes 27.2437
lfemur 25.0281 13.5526 -12.6313
ltibia -6.44471
lfoot -28.2447 32.0405
ltoes 11.4986
479
root -1.28605 17.8411 6.45079 10.7951 -59.3166 -14.9461
lowerback 7.1804 -7.96915 6.52684
upperback -3.61738 -9.69444 6.82046
thorax -7.72857 -4.94972 4.99958
lowerneck -16.6341 14.0073 17.7519
upperneck 15.9844 17.3599 -11.8409
head 10.464 8.03265 -4.21939
rclavicle 9.90942e-014 -7.95139e-014
rhumerus -15.9472 -25.7493 10.5783
rradius 136.506
rwrist -34.8162
rhand -5.27315 -33.5224
rfingers 7.12502
rthumb 20.5309 -62.4568
lclavicle 9.90942e-014 -7.95139e-014
lhumerus -10.0908 65.076 36.9625
lradius 38.7349
lwrist 25.9724
lhand -11.78 -27.154
lfingers 7.12502
lthumb 14.269 2.33576
rfemur 11.2487 14.3158 23.3838
rtibia -19.9623
rfoot 20.9913 5.3522
rtoes 26.9752
lfemur 25.0894 13.5619 -12.5922
ltibia -6.57645
lfoot -28.1638 32.0764
ltoes 11.3776
480
root -1.28453 17.841 6.45362 10.8827 -59.2813 -15.0152
lowerback 7.19269 -7.97432 6.57815
upperback -3.62447 -9.69373 6.83666
thorax -7.74954 -4.9514 4.99347
lowerneck -16.6326 14.0275 17.7045
upperneck 16.021 17.3891 -11.7744
head 10.4696 8.04962 -4.18309
rclavicle 6.33129e-014 1.11319e-014
rhumerus -16.0024 -25.6205 10.6149
rradius 136.534
rwrist -35.042
rhand -5.08458 -33.2632
rfingers 7.12502
rthumb 20.7121 -62.178
lclavicle 6.33129e-014 1.11319e-014
lhumerus -10.1593 65.0639 36.9256
lradius 38.7759
lwrist 25.991
lhand -11.8499 -27.0395
lfingers 7.12502
lthumb 14.2016 2.45502
rfemur 11.2107 14.2791 23.4121
rtibia -19.9484
rfoot 20.9726 5.41754
rtoes 26.8925
lfemur 25.073 13.5606 -12.5664
ltibia -6.64037
lfoot -28.0185 32.1459
ltoes 10.9497
481
root -1.28329 17.8408 6.4552 10.9434 -59.2509 -15.0582
lowerback 7.19902 -7.97586 6.58
upperback -3.6214 -9.69451 6.86651
thorax -7.74492 -4.95167 5.02475
lowerneck -16.6063 14.0432 17.6063
upperneck 16.0406 17.4241 -11.6934
head 10.4591 8.06899 -4.13486
rclavicle 9.64106e-015 -3.49861e-014
rhumerus -16.0373 -25.5162 10.6709
rradius 136.558
rwrist -35.3906
rhand -5.21824 -33.3591
rfingers 7.12502
rthumb 20.5837 -62.2877
lclavicle 9.64106e-015 -3.49861e-014
lhumerus -10.2661 65.1567 36.9503
lradius 38.9123
lwrist 25.9292
lhand -11.9509 -26.9821
lfingers 7.12502
lthumb 14.1043 2.5192
rfemur 11.1845 14.2889 23.4275
rtibia -19.9564
rfoot 20.9331 5.41354
rtoes 26.7799
lfemur 25.0268 13.5607 -12.5525
ltibia -6.62672
lfoot -27.9236 32.1801
ltoes 10.701
482
root -1.28217 17.8414 6.45712 10.8905 -59.2451 -14.9552
lowerback 7.19226 -7.97114 6.49841
upperback -3.61986 -9.69734 6.87549
thorax -7.7234 -4.94944 5.07488
lowerneck -16.5312 14.0538 17.5987
upperneck 15.9883 17.4604 -11.7397
head 10.4369 8.08406 -4.14681
rclavicle -4.22417e-014 6.36111e-015
rhumerus -16.0486 -25.4792 10.6981
rradius 136.577
rwrist -35.6462
rhand -5.13636 -33.6047
rfingers 7.12502
rthumb 20.6624 -62.5249
lclavicle -4.22417e-014 6.36111e-015
lhumerus -10.402 65.3204 36.9994
lradius 39.1065
lwrist 25.7442
lhand -11.988 -27.0769
lfingers 7.12502
lthumb 14.0686 2.42692
rfemur 11.1547 14.3033 23.3493
rtibia -19.9762
rfoot 20.92 5.38142
rtoes 26.7171
lfemur 24.9464 13.5746 -12.6241
ltibia -6.5615
lfoot -27.8853 32.1718
ltoes 10.5743
483
root -1.28127 17.8426 6.46009 10.7851 -59.2633 -14.7855
lowerback 7.18506 -7.95497 6.40941
upperback -3.62566 -9.68566 6.84917
thorax -7.71489 -4.93986 5.09049
lowerneck -16.4371 14.0485 17.7124
upperneck 15.9057 17.4664 -11.885
head 10.4184 8.0837 -4.21789
rclavicle -4.65156e-014 6.20208e-014
rhumerus -16.0817 -25.3901 10.6518
rradius 136.586
rwrist -35.5508
rhand -4.90095 -33.6597
rfingers 7.12502
rthumb 20.8886 -62.5551
lclavicle -4.65156e-014 6.20208e-014
lhumerus -10.4785 65.3382 37.0112
lradius 39.2028
lwrist 25.6922
lhand -11.9239 -27.1618
lfingers 7.12502
lthumb 14.1304 2.33775
rfemur 11.1284 14.3139 23.2306
rtibia -20.0011
rfoot 20.9103 5.39012
rtoes 26.6209
lfemur 24.8413 13.6086 -12.7399
ltibia -6.44431
lfoot -27.8943 32.1488
ltoes 10.4032
